<mxfile host="app.diagrams.net" modified="2024-04-06T18:34:31.642Z" agent="Mozilla/5.0 (Windows NT 10.0; Win64; x64) AppleWebKit/537.36 (KHTML, like Gecko) Chrome/123.0.0.0 Safari/537.36" version="24.2.2" etag="lNM4Cs1H_nWXLRe-G5sg" type="github">
  <diagram name="第 1 页" id="sxMtC02LeLYAYBa0kh6c">
    <mxGraphModel>
      <root>
        <mxCell id="0" />
        <mxCell id="1" parent="0" />
      </root>
    </mxGraphModel>
  </diagram>
</mxfile>
